<svg xmlns="http://www.w3.org/2000/svg" width="100" height="24" viewBox="0 0 100 24">
  <g>
    <!-- Play button -->
    <rect x="15" y="3" width="20" height="18" rx="5" fill="#FF0000" />
    <polygon points="22,7 22,17 32,12" fill="#FFFFFF" />
    
    <!-- YouTube text -->
    <path d="M44,17.6h-3.3V16c-0.6,1.3-1.8,1.9-3.3,1.9c-0.9,0-1.6-0.3-2-0.8c-0.4-0.5-0.6-1.3-0.6-2.4V7.3h3.3v7c0,0.4,0.1,0.7,0.2,0.9 c0.1,0.2,0.4,0.3,0.7,0.3c0.3,0,0.6-0.1,1-0.4c0.3-0.3,0.5-0.6,0.5-0.9v-7h3.3V17.6z" fill="#282828" />
    <path d="M56,9.1c-0.3-0.7-0.8-1.3-1.5-1.7C53.8,7,53,6.8,52,6.8c-0.9,0-1.7,0.2-2.4,0.5c-0.7,0.3-1.3,0.8-1.6,1.5V7.2h-3.3v14.4 h3.3v-4.9c0.3,0.6,0.8,1.1,1.5,1.5c0.7,0.3,1.5,0.5,2.3,0.5c1.1,0,2-0.3,2.6-0.9c0.7-0.6,1.1-1.5,1.4-2.6c0.3-1.1,0.4-2.4,0.4-3.9 c0-1-0.1-1.9-0.2-2.8C56.1,9.4,56.1,9.3,56,9.1z M52.9,12.5c0,1.2-0.1,2.1-0.3,2.9c-0.2,0.8-0.7,1.2-1.4,1.2c-0.4,0-0.8-0.1-1.1-0.3 c-0.3-0.2-0.5-0.5-0.7-0.9V10c0.1-0.3,0.3-0.6,0.7-0.8c0.3-0.2,0.7-0.3,1.1-0.3c0.7,0,1.2,0.4,1.4,1.1c0.2,0.8,0.3,1.7,0.3,2.9V12.5z" fill="#282828" />
    <path d="M66,17.6h-3.3V16c-0.6,1.3-1.8,1.9-3.3,1.9c-0.9,0-1.6-0.3-2-0.8c-0.4-0.5-0.6-1.3-0.6-2.4V7.3h3.3v7c0,0.4,0.1,0.7,0.2,0.9 c0.1,0.2,0.4,0.3,0.7,0.3c0.3,0,0.6-0.1,1-0.4c0.3-0.3,0.5-0.6,0.5-0.9v-7H66V17.6z" fill="#282828" />
    <path d="M73,7c-0.6,0-1.2,0.2-1.9,0.5c-0.6,0.3-1.1,0.8-1.4,1.5V7.2h-3.3v10.3h3.3v-5.5c0-0.5,0.2-0.9,0.5-1.3 c0.3-0.4,0.7-0.5,1.2-0.5c0.4,0,0.8,0.1,1,0.4c0.2,0.3,0.3,0.7,0.3,1.2v5.9h3.3v-6.1c0-1.4-0.3-2.5-0.9-3.1C74.6,7.3,73.9,7,73,7z" fill="#282828" />
    <path d="M90,8.3c-0.7-0.8-1.8-1.2-3.3-1.2c-0.9,0-1.7,0.2-2.5,0.6c-0.7,0.4-1.3,1-1.7,1.7c-0.4,0.7-0.6,1.6-0.6,2.5 c0,0.9,0.2,1.8,0.6,2.5c0.4,0.7,1,1.3,1.7,1.7c0.7,0.4,1.5,0.6,2.4,0.6c1.4,0,2.6-0.4,3.3-1.3c0.8-0.9,1.2-2.1,1.2-3.6 C91.2,10.3,90.8,9.1,90,8.3z M87.2,14c-0.3,0.4-0.7,0.6-1.2,0.6c-0.5,0-0.9-0.2-1.2-0.6c-0.3-0.4-0.4-1-0.4-1.9 c0-0.9,0.1-1.5,0.4-1.9c0.3-0.4,0.7-0.6,1.2-0.6c0.5,0,0.9,0.2,1.2,0.6c0.3,0.4,0.4,1,0.4,1.9C87.6,13,87.5,13.6,87.2,14z" fill="#282828" />
  </g>
</svg> 